<svg width="816" height="807" viewBox="0 0 816 807" fill="none" xmlns="http://www.w3.org/2000/svg">
<path fill-rule="evenodd" clip-rule="evenodd" d="M416.421 804.7C336.328 804.7 299.121 793.046 234.619 746.406C193.569 798.879 64.3527 839.703 58.6623 769.726C58.6623 717.294 46.8241 673.119 33.7682 624.501C17.7781 564.93 0 498.665 0 402.362C0 172.738 189.548 0 414.307 0C639.013 0 815.219 181.137 815.219 404.601C815.219 628.036 633.393 804.706 416.41 804.706L416.421 804.7ZM419.665 198.541C310.311 192.85 224.979 268.245 206.161 386.265C190.563 484.005 218.202 603.094 241.83 609.087C252.986 611.909 281.533 588.963 299.109 571.47C328.066 590.115 361.264 604.573 398.18 606.474C510.456 612.319 609.931 525.014 615.823 413.446C621.722 301.871 531.946 204.391 419.671 198.541H419.665Z" fill="black"/>
</svg>
